<svg xmlns="http://www.w3.org/2000/svg" width="64" height="64" viewBox="0 0 64 64" fill="none">
  <title>Vulos Mail</title>
  <defs>
    <linearGradient id="vm-g" x1="10" y1="6" x2="54" y2="58" gradientUnits="userSpaceOnUse">
      <stop offset="0" stop-color="#19a3a6"/>
      <stop offset="1" stop-color="#C96AFF"/>
    </linearGradient>
  </defs>
  <!-- Envelope body -->
  <rect x="6" y="20" width="52" height="36" rx="8" fill="url(#vm-g)" opacity="0.16"/>
  <rect x="6" y="20" width="52" height="36" rx="8" fill="none" stroke="url(#vm-g)" stroke-width="2.5"/>
  <!-- The canonical Vulos mark as the envelope flap (same glyph office shaped into
       a pencil); its point dips toward the envelope, the arms lift like an open flap. -->
  <g transform="translate(14 6) scale(0.74)">
    <path d="M25.946 44.938c-.664.845-2.021.375-2.021-.698V33.937a2.26 2.26 0 0 0-2.262-2.262H10.287c-.92 0-1.456-1.04-.92-1.788l7.48-10.471c1.07-1.497 0-3.578-1.842-3.578H1.237c-.92 0-1.456-1.04-.92-1.788L10.013.474c.214-.297.556-.474.92-.474h28.894c.92 0 1.456 1.04.92 1.788l-7.48 10.471c-1.07 1.498 0 3.579 1.842 3.579h11.377c.943 0 1.473 1.088.89 1.83L25.947 44.94z"
      fill="url(#vm-g)"/>
  </g>
</svg>
